# xmcd CD database file
#
# Track frame offsets:
#	187
#	7877
#	31232
#	52455
#	74157
#	93727
#	109852
#	127780
#	147145
#
# Disc length: 2224 seconds
#
# Revision: 3
# Processed by: cddbd v1.5.2PL0 Copyright (c) Steve Scherf et al.
# Submitted via: CDex 1.81
#
DISCID=7f08ae09
DTITLE=Orquesta De La Luz - !Feliz Christmas!
DYEAR=1994
DGENRE=Salsa
TTITLE0=Noche De Paz(Silent Night)
TTITLE1=The Christmas Song(Chestnuts Roasting On An Open Fire)
TTITLE2=Parranda Del Japon
TTITLE3=Cantares De Navidad
TTITLE4=Feliz Navidad
TTITLE5=Cuando Llega Navidad
TTITLE6=Cantares
TTITLE7=White Christmas(Navidades Blancas)
TTITLE8=[Bonus Track]Las Hadas Blancas
EXTD=YEAR: 1994
EXTT0=
EXTT1=
EXTT2=
EXTT3=
EXTT4=
EXTT5=
EXTT6=
EXTT7=
EXTT8=
PLAYORDER=
